<?xml version="1.0" encoding="UTF-8"?><svg id="Layer_2" xmlns="http://www.w3.org/2000/svg" viewBox="0 0 323.52 49.75"><defs><style>.cls-1{fill:#fff;}.cls-2{fill:#008f11;}</style></defs><g id="Trmnl_-_W_B"><g><polygon class="cls-1" points="23.83 22.79 7.93 6.83 5.81 4.7 3.68 6.83 2.12 8.39 0 10.5 2.12 12.62 14.34 24.9 2.12 37.13 0 39.25 2.12 41.37 3.68 42.93 5.8 45.05 7.92 42.93 23.82 27.03 25.94 24.91 23.83 22.79"/><polygon class="cls-1" points="38.94 0 35.94 0 35.94 3 35.94 5.22 35.94 8.22 38.94 8.22 51.72 8.22 51.72 44.76 51.72 47.76 54.72 47.76 56.88 47.76 59.88 47.76 59.88 44.76 59.88 8.22 72.66 8.22 75.66 8.22 75.66 5.22 75.66 3 75.66 0 72.66 0 38.94 0"/><path class="cls-1" d="M114.78,31.27c1.92-1.08,3.6-2.55,5.02-4.38,2.31-2.99,3.48-6.42,3.48-10.2,0-3.24-.85-6.24-2.53-8.91-1.69-2.69-4.02-4.74-6.94-6.1-1.28-.59-2.69-1.02-4.2-1.29-1.43-.25-3.13-.37-5.05-.37h-18.9V47.76h8.22v-14.34h12.15s.31-.01,.31-.01l9.33,13.09,.9,1.26h10.03l-3.4-4.75-8.42-11.74Zm-4.01-7.21c-1.3,.77-2.69,1.14-4.23,1.14h-12.66V8.22h10.68c3.03,0,4.64,.4,5.46,.74,1.57,.67,2.8,1.68,3.69,3.06,.91,1.4,1.35,2.92,1.35,4.67,0,1.55-.37,2.93-1.14,4.23-.79,1.33-1.81,2.36-3.14,3.14Z"/><polygon class="cls-1" points="171.1 0 169.35 0 168.49 1.53 156.58 22.64 144.61 1.52 143.75 0 142 0 139.6 0 136.6 0 136.6 3 136.6 44.76 136.6 47.76 139.6 47.76 141.82 47.76 144.82 47.76 144.82 44.76 144.82 18.51 152.89 32.74 153.76 34.26 155.5 34.26 157.6 34.26 159.35 34.26 160.21 32.74 168.1 18.82 168.1 44.76 168.1 47.76 171.1 47.76 173.32 47.76 176.32 47.76 176.32 44.76 176.32 3 176.32 0 173.32 0 171.1 0"/><polygon class="cls-1" points="220.82 0 217.82 0 217.82 3 217.82 24.22 193.75 .85 192.88 0 191.66 0 189.32 0 186.32 0 186.32 3 186.32 44.76 186.32 47.76 189.32 47.76 191.54 47.76 194.54 47.76 194.54 44.76 194.54 13 217.82 35.7 217.82 44.76 217.82 47.76 220.82 47.76 223.04 47.76 226.04 47.76 226.04 44.76 226.04 3 226.04 0 223.04 0 220.82 0"/><polygon class="cls-1" points="270.36 39.54 244.26 39.54 244.26 3 244.26 0 241.26 0 239.04 0 236.04 0 236.04 3 236.04 44.76 236.04 47.76 239.04 47.76 270.36 47.76 273.36 47.76 273.36 44.76 273.36 42.54 273.36 39.54 270.36 39.54"/><rect class="cls-2" x="283.36" y="39.53" width="40.16" height="10.22"/></g></g></svg>