<?xml version="1.0" encoding="UTF-8"?><svg id="Layer_2" xmlns="http://www.w3.org/2000/svg" viewBox="0 0 494.19 87.76"><defs><style>.cls-1{fill:#fff;}.cls-2{fill:#218ce6;}</style></defs><g id="Trmnl_-_W_B"><g><rect class="cls-2" width="238.75" height="87.76"/><path d="M55.58,29.91c-1.77-3.01-4.2-5.44-7.21-7.21-3.04-1.79-6.39-2.7-9.95-2.7H20v47.76h18.42c3.57,0,6.92-.91,9.95-2.7,3.01-1.77,5.44-4.2,7.21-7.21,1.79-3.04,2.7-6.38,2.7-9.95v-8.04c0-3.57-.91-6.92-2.7-9.95Zm-27.36-1.69h10.14c2.12,0,4.03,.51,5.84,1.57,1.83,1.07,3.23,2.46,4.3,4.27,1.05,1.79,1.56,3.68,1.56,5.8v8.04c0,2.11-.51,4.01-1.56,5.8-1.06,1.81-2.47,3.2-4.3,4.27-1.81,1.06-3.72,1.57-5.84,1.57h-10.14V28.22Z"/><path d="M112.19,63.62l-17.16-41.76-.76-1.86h-6.36l-.76,1.86-17.16,41.76-1.7,4.14h8.82l.77-1.85,4.93-11.95h16.56l4.88,11.93,.76,1.86h8.89l-1.7-4.14Zm-16.19-17.82h-9.84l4.9-12.01,4.93,12.01Z"/><path d="M161.43,63.01l-8.42-11.74c1.92-1.08,3.6-2.55,5.02-4.38,2.31-2.99,3.48-6.42,3.48-10.2,0-3.24-.85-6.24-2.53-8.91-1.69-2.69-4.02-4.74-6.94-6.1-1.28-.59-2.69-1.02-4.2-1.29-1.43-.25-3.13-.37-5.05-.37h-18.9v47.76h8.22v-14.34h12.15s.31-.01,.31-.01l9.33,13.09,.9,1.26h10.03l-3.4-4.75Zm-29.32-34.79h10.68c3.03,0,4.64,.4,5.46,.74,1.57,.67,2.8,1.68,3.69,3.06,.91,1.4,1.35,2.92,1.35,4.67,0,1.55-.37,2.93-1.14,4.23-.79,1.33-1.81,2.36-3.14,3.14-1.3,.77-2.69,1.14-4.23,1.14h-12.66V28.22Z"/><polygon points="197.95 40.76 213.61 25.16 218.75 20.03 211.49 20.03 208.37 20.03 207.13 20.03 206.25 20.91 183.05 44.06 183.05 23.03 183.05 20.03 180.05 20.03 177.83 20.03 174.83 20.03 174.83 23.03 174.83 64.79 174.83 67.79 177.83 67.79 180.05 67.79 183.05 67.79 183.05 64.79 183.05 55.65 192.09 46.61 206.35 66.54 207.25 67.79 208.79 67.79 211.43 67.79 217.26 67.79 213.87 63.05 197.95 40.76"/><polygon class="cls-1" points="293.25 19.99 291.5 19.99 290.64 21.52 278.73 42.63 266.76 21.51 265.9 19.99 264.15 19.99 261.75 19.99 258.75 19.99 258.75 22.99 258.75 64.75 258.75 67.75 261.75 67.75 263.97 67.75 266.97 67.75 266.97 64.75 266.97 38.5 275.04 52.73 275.91 54.25 277.65 54.25 279.75 54.25 281.5 54.25 282.36 52.73 290.25 38.81 290.25 64.75 290.25 67.75 293.25 67.75 295.47 67.75 298.47 67.75 298.47 64.75 298.47 22.99 298.47 19.99 295.47 19.99 293.25 19.99"/><path class="cls-1" d="M336.8,21.15c-2.75-1.39-5.8-2.09-9.06-2.09s-6.31,.57-8.9,1.69c-2.73,1.18-4.9,2.9-6.43,5.12-1.57,2.26-2.36,4.9-2.36,7.83s.86,5.47,2.56,7.45c1.54,1.79,3.64,3.21,6.24,4.21,2.28,.88,5.24,1.68,8.79,2.39,3.03,.61,5.32,1.16,6.79,1.63,1.09,.34,1.95,.87,2.64,1.61,.5,.54,.76,1.47,.76,2.76,0,2.07-.76,3.59-2.39,4.77-1.91,1.39-4.33,2.07-7.39,2.07-2.49,0-4.62-.43-6.36-1.28-1.64-.81-2.85-1.89-3.69-3.31-.87-1.46-1.29-3.16-1.29-5.19v-2.01h-8.22v2.01c0,3.45,.82,6.58,2.43,9.3,1.63,2.76,4.01,4.92,7.05,6.41,2.93,1.44,6.32,2.17,10.08,2.17,3.04,0,5.9-.51,8.52-1.52,2.79-1.07,5.07-2.74,6.78-4.95,1.79-2.31,2.7-5.14,2.7-8.41s-.89-6.04-2.63-8.04c-1.6-1.83-3.59-3.16-5.91-3.95-1.96-.67-4.58-1.34-8.01-2.05-3.11-.65-5.54-1.27-7.22-1.83-1.34-.45-2.41-1.07-3.19-1.87-.35-.36-.82-1.01-.82-2.49,0-1.4,.35-2.5,1.06-3.35,.84-1,1.93-1.73,3.32-2.23,1.54-.56,3.24-.84,5.04-.84,1.99,0,3.74,.38,5.34,1.16,1.51,.74,2.67,1.76,3.54,3.1,.85,1.32,1.26,2.83,1.26,4.61v2.02h8.22v-2.02c0-3.29-.85-6.28-2.51-8.88-1.65-2.57-3.91-4.59-6.72-6.01Z"/><path class="cls-1" d="M396.11,36.82c0-2.15-.49-4.29-1.45-6.36-.91-1.95-2.09-3.74-3.53-5.32-1.84-1.98-4.06-3.49-6.63-4.52-2.51-1-5.28-1.5-8.25-1.5-3.69,0-7.11,.92-10.19,2.72-3.06,1.8-5.52,4.27-7.31,7.35-1.8,3.09-2.72,6.55-2.72,10.27v8.4c0,3.79,.91,7.32,2.7,10.5,1.79,3.19,4.27,5.74,7.36,7.56,3.1,1.83,6.52,2.76,10.17,2.76s7.4-1.05,10.71-3.13c.45-.28,.88-.57,1.29-.87v3.1h8.22v-26.64h-23.22v8.22h14.97c-.12,1.85-.63,3.54-1.55,5.14-1.06,1.85-2.48,3.28-4.34,4.36-1.85,1.08-3.84,1.6-6.08,1.6s-4.16-.53-6-1.62c-1.86-1.1-3.29-2.57-4.37-4.5-1.09-1.94-1.62-4.06-1.62-6.48v-8.4c0-2.29,.52-4.3,1.58-6.16,1.06-1.85,2.48-3.28,4.34-4.36,1.85-1.08,3.84-1.6,6.08-1.6,3.78,0,6.64,1.07,8.75,3.27,.84,.91,1.57,1.97,2.14,3.14,.52,1.06,.78,2.09,.81,3.15"/><rect class="cls-2" x="454.03" y="62.32" width="40.16" height="10.22"/><path class="cls-1" d="M434.8,21.15c-2.75-1.39-5.8-2.09-9.06-2.09s-6.31,.57-8.9,1.69c-2.73,1.18-4.9,2.9-6.43,5.12-1.57,2.26-2.36,4.9-2.36,7.83s.86,5.47,2.56,7.45c1.54,1.79,3.64,3.21,6.24,4.21,2.28,.88,5.24,1.68,8.79,2.39,3.03,.61,5.32,1.16,6.79,1.63,1.09,.34,1.95,.87,2.64,1.61,.5,.54,.76,1.47,.76,2.76,0,2.07-.76,3.59-2.39,4.77-1.91,1.39-4.33,2.07-7.39,2.07-2.49,0-4.62-.43-6.36-1.28-1.64-.81-2.85-1.89-3.69-3.31-.87-1.46-1.29-3.16-1.29-5.19v-2.01h-8.22v2.01c0,3.45,.82,6.58,2.43,9.3,1.63,2.76,4.01,4.92,7.05,6.41,2.93,1.44,6.32,2.17,10.08,2.17,3.04,0,5.9-.51,8.52-1.52,2.79-1.07,5.07-2.74,6.78-4.95,1.79-2.31,2.7-5.14,2.7-8.41s-.89-6.04-2.63-8.04c-1.6-1.83-3.59-3.16-5.91-3.95-1.96-.67-4.58-1.34-8.01-2.05-3.11-.65-5.54-1.27-7.22-1.83-1.34-.45-2.41-1.07-3.19-1.87-.35-.36-.82-1.01-.82-2.49,0-1.4,.35-2.5,1.06-3.35,.84-1,1.93-1.73,3.32-2.23,1.54-.56,3.24-.84,5.04-.84,1.99,0,3.74,.38,5.34,1.16,1.51,.74,2.67,1.76,3.54,3.1,.85,1.32,1.26,2.83,1.26,4.61v2.02h8.22v-2.02c0-3.29-.85-6.28-2.51-8.88-1.65-2.57-3.91-4.59-6.72-6.01Z"/></g></g></svg>